<?xml version="1.0" encoding="UTF-8"?>
<!DOCTYPE svg PUBLIC "-//W3C//DTD SVG 1.1//EN" "http://www.w3.org/Graphics/SVG/1.1/DTD/svg11.dtd">
<!-- Creator: CorelDRAW 2018 (64-Bit) -->
<svg xmlns="http://www.w3.org/2000/svg" xml:space="preserve" width="67.3633mm" height="9.2943mm" version="1.1" style="shape-rendering:geometricPrecision; text-rendering:geometricPrecision; image-rendering:optimizeQuality; fill-rule:evenodd; clip-rule:evenodd"
viewBox="0 0 6740.12 929.95"
 xmlns:xlink="http://www.w3.org/1999/xlink">
 <defs>
  <style type="text/css">
   <![CDATA[
    .fil0 {fill:#53565A}
    .fil1 {fill:#FE5000}
    .fil2 {fill:#53565A;fill-rule:nonzero}
   ]]>
  </style>
 </defs>
 <g id="Layer_x0020_1">
  <metadata id="CorelCorpID_0Corel-Layer"/>
  <g id="_1087391280">
   <path class="fil0" d="M23.47 0l494.66 181.71 -391.87 144.35 -102.79 -59.86 0 -266.2zm126.37 179.45l-68.27 -30.18 0 25.51 68.27 32.55 0 -27.89zm129.44 57.28l-72.46 -32.05 0 28.74 72.46 34.5 0 -31.19z"/>
   <polygon class="fil1" points="1147.76,0 653.1,181.71 1044.98,326.06 1147.76,266.2 "/>
   <path class="fil0" d="M1171.2 420.67l0 509.29 -561.37 -326 0 -390.08 561.37 206.8zm-412.86 38.28l-87.38 -39.69 0 33.62 87.38 40.9 0 -34.83zm161.42 73.21l-98.33 -44.65 0 35.68 98.33 46.01 0 -37.04zm69.16 31.48l0 38.04 108.96 51 0 -39.56 -108.96 -49.48z"/>
   <polygon class="fil1" points="-0,420.67 -0,929.95 561.39,603.95 561.39,213.87 "/>
   <path class="fil2" d="M1913.81 442.56l0 227.26 -275.45 -0.02c-63.41,-1.6 -110.51,-49.33 -112.12,-112.56l0 -151.31c0.05,-29.82 11.8,-58.42 32.47,-79.87 21.08,-21.47 49.89,-33.86 80.02,-33.94l273.38 0 0 78.09 -272.53 0c-20.87,0.52 -34.89,15.07 -35.67,35.74l-0.02 150.09c0.52,20.5 14.31,34.87 34.89,35.68l197.38 0 0 -71.07 -131.54 0 0 -78.09 209.21 0z"/>
   <path class="fil2" d="M2295.4 541.69l96.73 128.1 -97.83 0 -91.57 -121.21 -143.95 0 0 121.21 -78.08 0 0 -377.68 281.91 0c47.66,1.26 83.4,37.39 84.59,84.96l0 86.99c-0.88,35.83 -21.42,64.92 -51.8,77.63zm-33.2 -171.49l-203.41 0 0 100.29 202.61 0.02c4.53,-0.12 7.83,-2.09 8.14,-6.85l0.02 -85.43c-0.11,-4.84 -2.44,-7.71 -7.36,-8.02zm0 0l-203.41 0 0 100.29 202.61 0.02c4.53,-0.12 7.83,-2.09 8.14,-6.85l0.02 -85.43c-0.11,-4.84 -2.44,-7.71 -7.36,-8.02zm33.2 171.49l96.73 128.1 -97.83 0 -91.57 -121.21 -143.95 0 0 121.21 -78.08 0 0 -377.68 281.91 0c47.66,1.26 83.4,37.39 84.59,84.96l0 86.99c-0.88,35.83 -21.42,64.92 -51.8,77.63z"/>
   <path class="fil2" d="M2805.17 636.79c-21.44,21.4 -48.93,32.25 -79.49,33.01l-204.14 0c-63.47,-1.59 -110.97,-48.96 -112.57,-112.45l0 -152.33c1.58,-63.47 49.01,-111.25 112.56,-112.9l204.15 0c63.55,1.65 110.97,49.44 112.56,112.9l0 152.33c-0.77,30.57 -11.65,58.02 -33.07,79.44zm-55.02 -256.14c-6.42,-6.42 -14.04,-10.01 -24.88,-10.44l-202.51 -0.02c-20.52,0.54 -35.28,14.62 -36.13,35.22l0 150.71c0.54,20.57 14.79,34.81 35.32,35.6l202.54 0c20.42,-0.5 35.25,-14.17 36.1,-34.77l0 -150.71c-0.28,-11.19 -3.85,-19.05 -10.44,-25.59zm0 0c-6.42,-6.42 -14.04,-10.01 -24.88,-10.44l-202.51 -0.02c-20.52,0.54 -35.28,14.62 -36.13,35.22l0 150.71c0.54,20.57 14.79,34.81 35.32,35.6l202.54 0c20.42,-0.5 35.25,-14.17 36.1,-34.77l0 -150.71c-0.28,-11.19 -3.85,-19.05 -10.44,-25.59zm55.02 256.14c-21.44,21.4 -48.93,32.25 -79.49,33.01l-204.14 0c-63.47,-1.59 -110.97,-48.96 -112.57,-112.45l0 -152.33c1.58,-63.47 49.01,-111.25 112.56,-112.9l204.15 0c63.55,1.65 110.97,49.44 112.56,112.9l0 152.33c-0.77,30.57 -11.65,58.02 -33.07,79.44z"/>
   <path class="fil2" d="M3311.31 409.01l-161.71 238.96 -161.68 -238.96 0 260.79 -78.08 0 0 -315.58c-0.13,-12.86 3.3,-25.56 10.57,-36.23 6.91,-10.67 17.56,-18.44 29.57,-22.4 13.46,-4.77 28.47,-4.38 41.74,0.81 12.41,4.93 23.13,13.28 30.97,24.1l126.92 188.04 126.94 -188.04c16.3,-22.52 44.7,-34.04 71.69,-25.26 11.9,3.78 22.28,11.28 29.63,21.36 7.83,10.84 11.62,24.01 11.54,37.32l0 315.88 -78.08 0 0 -260.79z"/>
   <path class="fil2" d="M3705.17 574.38l-173.8 0 -36.96 95.41 -84.19 0 126.88 -323.55c6.32,-15.85 16.61,-29.77 29.92,-40.45 14.97,-10.79 32.75,-16.68 51.19,-16.68 18.36,0 36.49,5.55 51.2,16.65 13.65,10.44 24.03,24.6 30.39,40.51l126.35 323.52 -83.57 0 -37.41 -95.41zm-82.75 -206.32c-0.89,-0.66 -1.84,-1.19 -3.86,-1.31 -4.78,0.05 -7.3,4.06 -9,8.07l-47.68 121.47 112.66 0 -47.73 -121.59c-1.47,-3.89 -3.16,-5.7 -4.4,-6.64zm0 0c-0.89,-0.66 -1.84,-1.19 -3.86,-1.31 -4.78,0.05 -7.3,4.06 -9,8.07l-47.68 121.47 112.66 0 -47.73 -121.59c-1.47,-3.89 -3.16,-5.7 -4.4,-6.64zm82.75 206.32l-173.8 0 -36.96 95.41 -84.19 0 126.88 -323.55c6.32,-15.85 16.61,-29.77 29.92,-40.45 14.97,-10.79 32.75,-16.68 51.19,-16.68 18.36,0 36.49,5.55 51.2,16.65 13.65,10.44 24.03,24.6 30.39,40.51l126.35 323.52 -83.57 0 -37.41 -95.41z"/>
   <polygon class="fil2" points="4413.15,292.11 4413.15,669.8 4335.06,669.8 4335.06,520.22 4120.86,520.22 4120.86,669.8 4042.77,669.8 4042.77,292.11 4120.86,292.11 4120.86,442.13 4335.06,442.13 4335.06,292.11 "/>
   <path class="fil2" d="M4876.51 636.79c-21.43,21.4 -48.92,32.25 -79.49,33.01l-204.14 0c-63.46,-1.59 -110.96,-48.96 -112.54,-112.45l0 -152.33c1.58,-63.47 48.99,-111.25 112.54,-112.9l204.15 0c63.56,1.65 110.98,49.44 112.56,112.9l0 152.33c-0.77,30.57 -11.65,58.02 -33.08,79.44zm-55.01 -256.14c-6.4,-6.42 -14.05,-10.01 -24.89,-10.44l-202.49 -0.02c-20.53,0.54 -35.29,14.62 -36.13,35.22l-0.02 150.71c0.55,20.57 14.81,34.81 35.32,35.6l202.55 0c20.42,-0.5 35.24,-14.17 36.09,-34.77l0.01 -150.71c-0.28,-11.19 -3.87,-19.05 -10.44,-25.59z"/>
   <path class="fil2" d="M5291.72 591.72l0 78.09 -233.77 -0.02c-41.61,-1.09 -73.61,-32.51 -74.72,-74.27l0 -303.41 78.38 0 -2.87 299.61 232.98 0z"/>
   <path class="fil2" d="M5686.11 636.74c-21.41,21.43 -48.9,32.3 -79.49,33.06l-286.6 0 0 -377.68 286.62 0c63.59,1.65 110.97,49.52 112.55,113.01l0 152.11c-0.77,30.61 -11.63,58.07 -33.08,79.5zm-288.45 -266.53l0 221.51 207.76 0c20.54,-0.52 35.25,-14.2 36.11,-34.89l0 -150.5c-0.52,-20.59 -14.64,-35.28 -35.31,-36.12l-208.56 0z"/>
   <path class="fil2" d="M6132.65 611.24l0 42.9 -167.4 0c-26.94,-0.71 -47.59,-20.95 -48.29,-47.98l-0.02 -219.62 42.89 0 -0.01 218.98c0.09,3.32 2.33,5.53 5.64,5.71l167.18 0z"/>
   <polygon class="fil2" points="6238.22,429.45 6238.22,654.15 6195.33,654.15 6195.33,429.45 6088.94,429.45 6088.94,386.55 6344.94,386.55 6344.94,429.45 "/>
   <polygon class="fil2" points="6697.43,654.15 6740.12,654.15 6740.12,610.25 6697.43,610.25 "/>
   <path class="fil2" d="M6426.89 429.45l0 181.79 160.65 0c19.62,-0.49 34.03,-14.26 34.7,-33.98l0 -113.08c-0.51,-19.7 -14.6,-34.06 -34.31,-34.73l-161.04 0zm-42.57 224.7l0 -267.6 203.8 0c43.44,1.14 75.61,33.7 76.69,77.02l0 113.89c-1.08,43.36 -33.33,75.59 -76.69,76.68l-203.8 0z"/>
  </g>
 </g>
</svg>
