<?xml version="1.0" encoding="utf-8"?>
<!-- Generator: Adobe Illustrator 22.1.0, SVG Export Plug-In . SVG Version: 6.00 Build 0)  -->
<svg version="1.1" id="Layer_1" xmlns="http://www.w3.org/2000/svg" xmlns:xlink="http://www.w3.org/1999/xlink" x="0px" y="0px"
	 viewBox="0 0 427 120.9" style="enable-background:new 0 0 427 120.9;" xml:space="preserve">
<style type="text/css">
	.st0{fill:#009EDC;}
	.st1{fill:#003BBB;}
</style>
<title>Artboard 4 copy</title>
<path class="st0" d="M278.1,67.2c-0.2-4-1.3-7.9-3.3-11.5l-0.4-0.7c-1.1-1.9-2.5-3.6-4.1-5.2c-0.8-0.8-1.6-1.5-2.4-2.2
	c-0.5-0.4-1-0.8-1.6-1.2s-0.9-0.6-1.4-0.9c-3.7-2.1-7.8-3.3-12-3.5h-0.3c-0.8,0-1.6,0-2.4,0h-0.9l-0.7,0.1h-0.1l-0.6,0.1h-0.1
	l-0.6,0.1h-0.1l-0.7,0.1l-0.7,0.1h-0.1l-0.6,0.1H245l-0.6,0.2h-0.1l-0.7,0.2c-1.7,0.5-3.3,1.2-4.8,2.1l-0.7,0.4
	c-0.4,0.3-0.8,0.5-1.2,0.8s-1.1,0.8-1.6,1.1c-0.9,0.7-1.7,1.4-2.5,2.2c-1.4,1.4-2.7,3-3.7,4.7c-0.2,0.2-0.3,0.5-0.4,0.7
	c-1,1.7-1.8,3.6-2.4,5.5c-0.5,1.6-0.8,3.3-1,5c-0.1,0.6-0.1,1.1-0.1,1.7c0,0.4,0,0.8,0,1.1c0,0.3,0,0.7,0,1
	c0.1,4.3,1.4,8.5,3.5,12.3c1.2,2,2.6,3.8,4.2,5.5c1.6,1.5,3.3,2.9,5.2,4c1.7,1,3.5,1.8,5.4,2.4l0.6,0.2c2,0.6,4,0.9,6.1,1
	c0.5,0,1,0,1.4,0h1.1c2.3-0.1,4.5-0.5,6.7-1.2c0.5-0.2,0.9-0.3,1.4-0.5c1.4-0.4,2.7-1,4-1.6c3.9-2.3,7.2-5.5,9.5-9.4
	c0.3-0.4,0.5-0.9,0.7-1.3c0.7-1.3,1.3-2.7,1.8-4.1c0.6-2,1-4.1,1.2-6.3v-0.4c0-0.4,0-0.9,0-1.3S278.2,67.6,278.1,67.2z"/>
<path class="st1" d="M427,17h-0.2c-5.5,0-12.4,3.8-20.4,11.4v-8.9h-44.1v98.9h44.1V64.9l3.4-1.7c6.9-3.5,12.7-5.2,17-5.2h0.3V17z"/>
<rect x="309.6" y="19.5" class="st1" width="44.1" height="98.9"/>
<rect x="149.3" y="19.5" class="st1" width="44.1" height="98.9"/>
<path class="st1" d="M140.8,17h-0.2c-5.5,0-12.4,3.8-20.4,11.4v-8.9H76v98.9h44.1V64.9l3.4-1.7c7-3.5,12.7-5.2,17-5.2h0.2L140.8,17z
	"/>
<path class="st1" d="M57.9,83.2c-2.5,0-4.2-0.5-5-1.6s-1.2-3.2-1.2-6.4v-20h15.8V19.5H51.7V0H7.6v19.5H0v35.7h7.6v30.2
	c0,13.5,2.6,22.9,7.9,27.9s14,7.6,26.1,7.6c6,0,14.6-1.2,25.8-3.5h0.2L66.9,83L57.9,83.2z"/>
<path class="st1" d="M275.7,19l-18,18l0.4,0.1c2,0.4,4,1.1,5.9,1.9l0.1,0.1l14-14H295v16.8l-13.9,13.9l0.1,0.1
	c0.8,1.9,1.4,3.9,1.9,5.9l0.1,0.4l17.9-17.9V19H275.7z"/>
<path class="st1" d="M239,98.1l-0.2-0.1l-14,14H208V95.2l14.1-14.1L222,81c-0.8-1.9-1.4-3.9-1.8-6l-0.1-0.4L202,92.7v25.3h25.4
	l18-18l-0.4-0.1C242.9,99.6,240.9,98.9,239,98.1z"/>
<path class="st1" d="M202,19v25.4l18.2,18.2l0.1-0.4c0.4-2,1-4,1.8-5.9l0.1-0.2L208,41.9V25h16.9L239,39.1l0.1-0.1
	c1.9-0.8,3.9-1.4,5.9-1.9l0.4-0.1L227.3,19H202z"/>
<path class="st1" d="M283.1,75.3c-0.4,2-1.1,4-1.9,5.9l-0.1,0.1L295,95.2v16.9h-16.9l-13.9-13.9l-0.2,0.1c-1.9,0.8-3.9,1.4-5.9,1.8
	l-0.4,0.1l17.9,17.9h25.4V92.7l-17.9-17.9L283.1,75.3z"/>
</svg>
