<?xml version="1.0" encoding="UTF-8" standalone="no"?>
<svg xmlns:dc="http://purl.org/dc/elements/1.1/" xmlns:cc="http://creativecommons.org/ns#" xmlns:rdf="http://www.w3.org/1999/02/22-rdf-syntax-ns#" xmlns:svg="http://www.w3.org/2000/svg" xmlns="http://www.w3.org/2000/svg" viewBox="0 0 560.97333 120.94667" height="120.94667" width="560.97333" xml:space="preserve" id="svg2" version="1.1"><metadata id="metadata8"><rdf:RDF><cc:Work rdf:about=""><dc:format>image/svg+xml</dc:format><dc:type rdf:resource="http://purl.org/dc/dcmitype/StillImage"/></cc:Work></rdf:RDF></metadata><defs id="defs6"/><g transform="matrix(1.3333333,0,0,-1.3333333,0,120.94667)" id="g10"><g transform="scale(0.1)" id="g12"><path id="path14" style="fill:#5fb03d;fill-opacity:1;fill-rule:evenodd;stroke:none" d="M 418.922,150.559 C 597.859,150.559 754.508,89.9336 837.574,0.28125 763.188,51.5156 662.34,83.0586 551.516,83.0586 440.492,83.0586 339.469,51.3867 265.043,0 H 0 c 82.9961,89.7969 239.781,150.559 418.922,150.559 z m 846.318,0 C 1086.3,150.559 929.652,89.9336 846.582,0.28125 920.969,51.5156 1021.82,83.0586 1132.64,83.0586 1243.67,83.0586 1344.69,51.3867 1419.11,0 h 265.05 c -83,89.7969 -239.78,150.559 -418.92,150.559"/><path id="path16" style="fill:#71bb51;fill-opacity:1;fill-rule:evenodd;stroke:none" d="M 486.871,280.676 C 637.855,238.82 734.691,158.262 794.133,66.0273 c -23.332,17.4883 -49.207,33.5235 -77.258,47.8517 -11.516,5.887 -23.473,11.512 -35.812,16.863 -74.907,32.422 -162.915,53.653 -257.348,59.074 h -0.11 C 371,192.82 319.836,190.742 271.305,184.191 L 42.9609,247.488 C 146.926,311.855 314.34,328.496 486.871,280.676"/><path id="path18" style="fill:#87c666;fill-opacity:1;fill-rule:evenodd;stroke:none" d="m 488.621,320.664 c 0.055,-0.019 0.117,-0.039 0.188,-0.051 -0.063,0.012 -0.121,0.032 -0.188,0.051 z m 79.895,52.832 C 685.801,299.27 753.547,208.281 788.414,115.137 745.824,173.684 688.086,226.984 611.23,269.109 c -17.984,9.856 -37.042,19.125 -57.203,27.661 -19.828,8.406 -40.914,16.191 -63.3,23.25 l -0.668,0.234 c -0.528,0.156 -0.926,0.266 -1.25,0.359 l -0.188,0.051 C 430.66,338.777 372.922,349.855 317.422,354.402 L 134.387,470.195 c 118.051,31.504 282.984,-1.015 434.129,-96.699"/><path id="path20" style="fill:#9bd07a;fill-opacity:1;fill-rule:evenodd;stroke:none" d="m 667.078,439.473 c 84.606,-98.75 123.32,-198.789 132.785,-292.664 -25.57,67.988 -67.3,135.046 -130.609,196.699 -13.711,13.347 -27.859,26.023 -42.399,37.859 -15.308,12.473 -31.386,24.5 -48.222,36.004 l -0.012,-0.008 -0.086,0.078 c -53.695,36.68 -109.488,65.555 -164.808,86.543 L 280.492,659.402 c 122.09,-4.531 270.223,-84.082 386.586,-219.929"/><path id="path22" style="fill:#aedb94;fill-opacity:1;fill-rule:evenodd;stroke:none" d="m 764.348,498.086 c 51.496,-110.852 63.613,-211.875 51.429,-300.77 -8.367,63.922 -29.261,130.321 -66.914,197.372 -8.465,15.07 -17.851,30.285 -28.203,45.593 -10.98,16.25 -22.105,31.496 -33.336,45.578 l -0.082,-0.058 c -0.051,0.051 -0.094,0.117 -0.148,0.176 l 0.09,0.07 C 641.5,543.301 590.234,591.926 536.895,630.652 L 451.543,814.277 C 567.875,776.895 689.004,660.313 764.348,498.086"/><path id="path24" style="fill:#c2e4ac;fill-opacity:1;fill-rule:evenodd;stroke:none" d="m 867.73,517.063 c 14.45,-105.625 1.747,-194.829 -27.648,-269.297 5.953,59.043 2.09,122.886 -15.019,191.132 -22.11,88.29 -56.59,173.844 -135.883,275.665 L 662.809,907.09 C 762.773,837.363 843.855,691.824 867.73,517.063"/><path id="path26" style="fill:#6b6a6c;fill-opacity:1;fill-rule:nonzero;stroke:none" d="m 1038.09,361.379 45.55,49.598 c 14.31,-18.34 36.25,-33.555 71.53,-33.555 27.72,0 53.2,14.766 53.2,41.152 0,30.828 -29.08,39.715 -63.01,39.715 h -25.47 v 54.984 h 27.21 c 31.32,0 54.11,9.391 54.11,37.071 0,22.383 -23.7,34.011 -45.15,34.011 -25.92,0 -48.25,-9.851 -63.91,-27.683 l -44.25,46.914 c 25.49,25.906 61.22,43.797 114.86,43.797 69.27,0 114.86,-31.77 114.86,-85.41 0,-37.969 -23.22,-64.309 -52.29,-72.364 v -1.336 c 34.84,-9.394 61.64,-34.453 61.64,-76.835 0,-65.286 -62.54,-97.446 -120.19,-97.446 -58.97,0 -99.63,17.856 -128.69,47.387"/><path id="path28" style="fill:#6b6a6c;fill-opacity:1;fill-rule:nonzero;stroke:none" d="m 1431.41,638.887 h 74.21 l 131.39,-316.446 h -84.94 l -24.57,62.149 h -122.44 l -23.25,-62.149 h -83.13 z M 1506.49,445.82 1467.2,554.426 1426.93,445.82 h 79.56"/><path id="path30" style="fill:#6b6a6c;fill-opacity:1;fill-rule:nonzero;stroke:none" d="m 1663.46,638.887 h 212.72 v -64.824 h -139.02 v -59.454 h 131.4 V 453.43 h -131.4 v -65.715 h 147.05 v -65.274 h -220.75 v 316.446"/><path id="path32" style="fill:#6b6a6c;fill-opacity:1;fill-rule:nonzero;stroke:none" d="m 2042.49,638.828 -101.91,-252.91 h -34.81 V 254.941 h 66.54 V 322.5 h 213.61 v -67.559 h 66.17 v 130.977 h -33.98 l -100.53,252.91 z m 36.21,-84.902 58.08,-168.008 h -116.63 l 58.55,168.008"/><path id="path34" style="fill:#6b6a6c;fill-opacity:1;fill-rule:nonzero;stroke:none" d="m 2288.34,638.887 h 76.43 V 519.082 h 123.35 v 119.805 h 76.43 V 322.441 h -76.43 V 454.719 H 2364.77 V 322.441 h -76.43 v 316.446"/><path id="path36" style="fill:#6b6a6c;fill-opacity:1;fill-rule:nonzero;stroke:none" d="m 2615.11,482.012 c 0,101.445 73.32,165.371 172.09,165.371 99.22,0 172.48,-63.926 172.48,-165.371 0,-100.117 -73.26,-168.02 -172.48,-168.02 -98.77,0 -172.09,67.903 -172.09,168.02 m 262.81,0 c 0,55.422 -37.09,96.515 -90.72,96.515 -53.63,0 -90.29,-41.093 -90.29,-96.515 0,-57.227 37.11,-98.328 90.29,-98.328 53.19,0 90.72,41.101 90.72,98.328"/><path id="path38" style="fill:#5fb03d;fill-opacity:1;fill-rule:nonzero;stroke:none" d="m 3016.11,638.887 h 109 c 47.87,0 99.28,-19.688 99.28,-79.989 0,-34.894 -22.38,-59.953 -55.43,-68.839 v -0.887 c 40.66,-4.934 70.14,-32.609 70.14,-76.856 0,-60.793 -52.68,-89.875 -118.93,-89.875 H 3016.11 Z M 3118,505.273 c 33.95,0 62.13,14.707 62.13,49.153 0,33.965 -27.28,47.312 -69.3,47.312 h -50.48 v -96.465 z m -2.22,-145.246 c 37.52,0 78.63,11.645 78.63,54.543 0,37.063 -26.41,53.118 -74.67,53.118 h -59.39 V 360.027 h 55.43"/><path id="path40" style="fill:#5fb03d;fill-opacity:1;fill-rule:nonzero;stroke:none" d="m 3469.35,439.551 c -16.11,-4.473 -42.91,-9.844 -70.64,-9.844 -71.47,0 -105.47,27.742 -105.47,92.5 v 116.68 h 75.54 v -97.434 c 0,-36.18 15.16,-49.148 50.96,-49.148 16.93,0 39.32,3.125 49.61,8.054 v 138.528 h 76.39 V 322.441 h -76.39 v 117.11"/><path id="path42" style="fill:#5fb03d;fill-opacity:1;fill-rule:nonzero;stroke:none" d="m 3704.9,638.887 h 74.18 L 3910.5,322.441 h -84.9 l -24.55,62.149 h -122.48 l -23.22,-62.149 h -83.15 z m 75.11,-193.067 -39.37,108.606 -40.16,-108.606 h 79.53"/><path id="path44" style="fill:#5fb03d;fill-opacity:1;fill-rule:nonzero;stroke:none" d="m 3914.14,481.105 c 0,101.454 75.11,166.278 171.62,166.278 44.25,0 92.07,-16.106 118.41,-46.477 l -51.85,-51.843 c -14.26,19.687 -39.71,29.035 -63.91,29.035 -53.14,0 -91.11,-41.114 -91.11,-96.993 0,-57.66 37.07,-96.972 89.8,-96.972 29.93,0 53.6,13.426 67.02,32.156 l 53.18,-50.059 c -27.68,-32.148 -69.69,-52.238 -122.87,-52.238 -97.42,0 -170.29,67.903 -170.29,167.113"/></g></g></svg>