<svg xmlns="http://www.w3.org/2000/svg" xmlns:xlink="http://www.w3.org/1999/xlink" viewBox="0 0 322.32 304.89"><defs><style>.cls-1{isolation:isolate;}.cls-2{opacity:0.75;mix-blend-mode:screen;}.cls-3{fill:url(#radial-gradient);}.cls-4{fill:url(#radial-gradient-2);}.cls-5{fill:url(#radial-gradient-3);}.cls-6{fill:url(#radial-gradient-4);}.cls-7{fill:url(#radial-gradient-5);}.cls-8{fill:url(#radial-gradient-6);}.cls-9{fill:url(#radial-gradient-7);}.cls-10{fill:url(#radial-gradient-8);}.cls-11{fill:url(#radial-gradient-9);}.cls-12{fill:url(#radial-gradient-10);}.cls-13{fill:url(#radial-gradient-11);}.cls-14{fill:url(#radial-gradient-12);}.cls-15{fill:url(#radial-gradient-13);}.cls-16{fill:url(#radial-gradient-14);}.cls-17{fill:url(#radial-gradient-15);}.cls-18{fill:url(#radial-gradient-16);}.cls-19{fill:url(#radial-gradient-17);}.cls-20{fill:url(#radial-gradient-18);}.cls-21{fill:url(#radial-gradient-19);}.cls-22{fill:url(#radial-gradient-20);}.cls-23{fill:url(#radial-gradient-21);}.cls-24{fill:url(#radial-gradient-22);}.cls-25{fill:url(#radial-gradient-23);}.cls-26{fill:url(#radial-gradient-24);}.cls-27{fill:url(#radial-gradient-25);}.cls-28{fill:url(#radial-gradient-26);}.cls-29{fill:url(#radial-gradient-27);}.cls-30{fill:url(#radial-gradient-28);}.cls-31{fill:url(#radial-gradient-29);}.cls-32{fill:url(#radial-gradient-30);}.cls-33{fill:url(#radial-gradient-31);}.cls-34{fill:url(#radial-gradient-32);}.cls-35{fill:url(#radial-gradient-33);}</style><radialGradient id="radial-gradient" cx="124.58" cy="2833.99" r="160.45" gradientTransform="matrix(-0.05, -1.04, 1.04, -0.04, -2741.15, 448.35)" gradientUnits="userSpaceOnUse"><stop offset="0" stop-color="#ffe0ba"/><stop offset="0.02" stop-color="#f4d6b2"/><stop offset="0.14" stop-color="#bca589"/><stop offset="0.25" stop-color="#8a7964"/><stop offset="0.37" stop-color="#5f5446"/><stop offset="0.49" stop-color="#3d352c"/><stop offset="0.61" stop-color="#221e19"/><stop offset="0.74" stop-color="#0f0d0b"/><stop offset="0.87" stop-color="#040303"/><stop offset="1"/></radialGradient><radialGradient id="radial-gradient-2" cx="124.56" cy="2833.99" r="161.85" xlink:href="#radial-gradient"/><radialGradient id="radial-gradient-3" cx="124.54" cy="2833.97" r="158.46" xlink:href="#radial-gradient"/><radialGradient id="radial-gradient-4" cx="124.52" cy="2833.95" r="155.1" xlink:href="#radial-gradient"/><radialGradient id="radial-gradient-5" cx="124.5" cy="2833.95" r="155.79" xlink:href="#radial-gradient"/><radialGradient id="radial-gradient-6" cx="124.48" cy="2833.95" r="158.65" xlink:href="#radial-gradient"/><radialGradient id="radial-gradient-7" cx="124.45" cy="2833.96" r="161.58" xlink:href="#radial-gradient"/><radialGradient id="radial-gradient-8" cx="124.46" cy="2833.96" r="162.63" xlink:href="#radial-gradient"/><radialGradient id="radial-gradient-9" cx="124.54" cy="2833.97" r="158.49" xlink:href="#radial-gradient"/><radialGradient id="radial-gradient-10" cx="124.61" cy="2833.97" r="154.49" xlink:href="#radial-gradient"/><radialGradient id="radial-gradient-11" cx="124.62" cy="2833.98" r="154.96" xlink:href="#radial-gradient"/><radialGradient id="radial-gradient-12" cx="124.6" cy="2833.99" r="157.86" xlink:href="#radial-gradient"/><radialGradient id="radial-gradient-13" cx="124.58" cy="2833.99" r="160.82" xlink:href="#radial-gradient"/><radialGradient id="radial-gradient-14" cx="124.56" cy="2833.99" r="162.1" xlink:href="#radial-gradient"/><radialGradient id="radial-gradient-15" cx="124.54" cy="2833.97" r="158.47" xlink:href="#radial-gradient"/><radialGradient id="radial-gradient-16" cx="124.52" cy="2833.95" r="154.9" xlink:href="#radial-gradient"/><radialGradient id="radial-gradient-17" cx="124.5" cy="2833.95" r="155.43" xlink:href="#radial-gradient"/><radialGradient id="radial-gradient-18" cx="124.48" cy="2833.95" r="158.32" xlink:href="#radial-gradient"/><radialGradient id="radial-gradient-19" cx="124.45" cy="2833.96" r="161.26" xlink:href="#radial-gradient"/><radialGradient id="radial-gradient-20" cx="124.46" cy="2833.96" r="162.5" xlink:href="#radial-gradient"/><radialGradient id="radial-gradient-21" cx="124.53" cy="2833.97" r="158.49" xlink:href="#radial-gradient"/><radialGradient id="radial-gradient-22" cx="124.61" cy="2833.97" r="154.61" xlink:href="#radial-gradient"/><radialGradient id="radial-gradient-23" cx="124.62" cy="2833.98" r="155.17" xlink:href="#radial-gradient"/><radialGradient id="radial-gradient-24" cx="124.6" cy="2833.99" r="158.08" xlink:href="#radial-gradient"/><radialGradient id="radial-gradient-25" cx="124.58" cy="2833.99" r="161.04" xlink:href="#radial-gradient"/><radialGradient id="radial-gradient-26" cx="124.56" cy="2833.99" r="162.24" xlink:href="#radial-gradient"/><radialGradient id="radial-gradient-27" cx="124.54" cy="2833.97" r="158.48" xlink:href="#radial-gradient"/><radialGradient id="radial-gradient-28" cx="124.52" cy="2833.95" r="154.81" xlink:href="#radial-gradient"/><radialGradient id="radial-gradient-29" cx="124.5" cy="2833.95" r="155.37" xlink:href="#radial-gradient"/><radialGradient id="radial-gradient-30" cx="124.47" cy="2833.95" r="158.27" xlink:href="#radial-gradient"/><radialGradient id="radial-gradient-31" cx="124.45" cy="2833.96" r="161.23" xlink:href="#radial-gradient"/><radialGradient id="radial-gradient-32" cx="124.45" cy="2833.68" r="162.58" xlink:href="#radial-gradient"/><radialGradient id="radial-gradient-33" cx="124.53" cy="2833.68" r="158.64" xlink:href="#radial-gradient"/></defs><title>fuckThePresentPortal</title><g class="cls-1"><g id="Layer_1" data-name="Layer 1"><g class="cls-2"><path class="cls-3" d="M192.13,178.64a.44.44,0,0,1,.35-.09l22.11,4.24a.42.42,0,0,1,.32.28l7.44,21.21a.43.43,0,0,1-.08.42l-14.67,17a.4.4,0,0,1-.4.14l-22.11-4.23a.43.43,0,0,1-.32-.28l-7.44-21.22a.41.41,0,0,1,.08-.41l14.67-17A.12.12,0,0,1,192.13,178.64Zm22.06,4.93-21.63-4.14L178.21,196l7.28,20.75,21.63,4.15,14.35-16.61Z" transform="translate(-38.68 -47.74)"/><path class="cls-4" d="M193.65,176.69a.42.42,0,0,1,.39-.08l23.05,6.54a.4.4,0,0,1,.29.3l5.92,23.16a.43.43,0,0,1-.11.41l-17.14,16.63a.43.43,0,0,1-.41.1l-23-6.53a.42.42,0,0,1-.29-.31l-5.92-23.16a.44.44,0,0,1,.11-.41l17.14-16.62Zm23,7.2L194,177.49l-16.78,16.29,5.8,22.69,22.58,6.4,16.78-16.29Z" transform="translate(-38.68 -47.74)"/><path class="cls-5" d="M175.74,190.8l19.71-16a.43.43,0,0,1,.42-.07l23.83,9.06a.44.44,0,0,1,.27.33l4.12,25.08a.41.41,0,0,1-.15.39l-19.71,16a.43.43,0,0,1-.42.07l-23.83-9a.45.45,0,0,1-.27-.33l-4.12-25.09A.42.42,0,0,1,175.74,190.8Zm20.06-15.22L176.47,191.3l4,24.6,23.37,8.88,19.33-15.72-4-24.6Z" transform="translate(-38.68 -47.74)"/><path class="cls-6" d="M175.15,188.06s0,0,0,0l22.38-15.16a.4.4,0,0,1,.42,0l24.43,11.79a.42.42,0,0,1,.24.36l2,26.95a.44.44,0,0,1-.18.38l-22.39,15.15a.43.43,0,0,1-.42,0l-24.43-11.8a.42.42,0,0,1-.24-.35l-2-27A.41.41,0,0,1,175.15,188.06Zm22.69-14.34-22,14.88,2,26.47,24,11.58,22-14.89-2-26.46Z" transform="translate(-38.68 -47.74)"/><path class="cls-7" d="M174.77,185.1l.06,0,25.15-14a.42.42,0,0,1,.42,0l24.8,14.75a.44.44,0,0,1,.21.37l-.34,28.74a.47.47,0,0,1-.22.37l-25.14,14a.44.44,0,0,1-.43,0l-24.8-14.75a.44.44,0,0,1-.21-.37l.34-28.74A.43.43,0,0,1,174.77,185.1Zm25.41-13.17-24.72,13.75-.34,28.25,24.38,14.5,24.72-13.75.34-28.25Z" transform="translate(-38.68 -47.74)"/><path class="cls-8" d="M174.65,181.93l.09-.06,28-12.49a.42.42,0,0,1,.42.05l24.93,17.92a.42.42,0,0,1,.17.39l-3,30.41a.42.42,0,0,1-.25.34L197,231a.42.42,0,0,1-.42,0L171.63,213a.4.4,0,0,1-.17-.38l3-30.42A.45.45,0,0,1,174.65,181.93Zm28.18-11.67-27.52,12.29-3,29.92,24.52,17.64,27.52-12.29,3-29.93Z" transform="translate(-38.68 -47.74)"/><path class="cls-9" d="M174.81,178.56l.13-.07,30.8-10.64a.42.42,0,0,1,.42.08l24.76,21.29a.41.41,0,0,1,.14.4l-6,31.93a.43.43,0,0,1-.28.32l-30.8,10.65a.43.43,0,0,1-.42-.08l-24.76-21.29a.43.43,0,0,1-.14-.41l6-31.93A.46.46,0,0,1,174.81,178.56Zm31-9.83-30.34,10.48-5.95,31.46,24.39,21,30.34-10.49,6-31.45Z" transform="translate(-38.68 -47.74)"/><path class="cls-10" d="M175.3,175a.35.35,0,0,1,.16-.08l33.65-8.43a.42.42,0,0,1,.41.12l24.27,24.84a.42.42,0,0,1,.11.41l-9.38,33.27a.41.41,0,0,1-.3.3l-33.65,8.42a.42.42,0,0,1-.41-.11L165.89,208.9a.42.42,0,0,1-.11-.41l9.38-33.27A.38.38,0,0,1,175.3,175Zm33.78-7.63-33.17,8.31-9.24,32.8L190.6,233l33.17-8.3,9.24-32.8Z" transform="translate(-38.68 -47.74)"/><path class="cls-11" d="M176.14,171.29a.4.4,0,0,1,.2-.09l36.46-5.81a.41.41,0,0,1,.4.15l23.43,28.56a.45.45,0,0,1,.07.42l-13,34.38a.39.39,0,0,1-.32.26L186.88,235a.46.46,0,0,1-.4-.15l-23.43-28.57a.45.45,0,0,1-.07-.42l13-34.37A.44.44,0,0,1,176.14,171.29Zm36.56-5-36,5.74-12.86,33.92L187,234.1l36-5.73,12.86-33.92Z" transform="translate(-38.68 -47.74)"/><path class="cls-12" d="M177.39,167.43a.4.4,0,0,1,.23-.1l39.2-2.78a.43.43,0,0,1,.38.18l22.19,32.43a.42.42,0,0,1,0,.42l-17,35.21a.42.42,0,0,1-.35.24l-39.2,2.78a.43.43,0,0,1-.38-.18L160.29,203.2a.45.45,0,0,1,0-.42l17-35.21A.41.41,0,0,1,177.39,167.43Zm39.25-2-38.71,2.75-16.8,34.77L183,235l38.71-2.75,16.8-34.77Z" transform="translate(-38.68 -47.74)"/><path class="cls-13" d="M179.07,163.45a.42.42,0,0,1,.27-.09l41.82.67a.44.44,0,0,1,.36.22L242,200.65a.44.44,0,0,1,0,.43L220.71,236.8a.42.42,0,0,1-.37.21l-41.82-.68a.42.42,0,0,1-.36-.22l-20.51-36.4a.42.42,0,0,1,0-.42L179,163.56A.35.35,0,0,1,179.07,163.45Zm41.83,1.43-41.33-.67-21.06,35.3,20.27,36,41.33.67,21.06-35.31Z" transform="translate(-38.68 -47.74)"/><path class="cls-14" d="M181.21,159.4a.45.45,0,0,1,.31-.1l44.28,4.59a.41.41,0,0,1,.34.25l18.36,40.45a.44.44,0,0,1,0,.43l-25.92,35.87a.4.4,0,0,1-.38.17l-44.28-4.59a.41.41,0,0,1-.34-.24l-18.36-40.46a.42.42,0,0,1,0-.42l25.92-35.87A.27.27,0,0,1,181.21,159.4Zm44.26,5.31-43.79-4.54-25.63,35.48,18.16,40L218,240.19l25.63-35.47Z" transform="translate(-38.68 -47.74)"/><path class="cls-15" d="M183.87,155.3a.41.41,0,0,1,.34-.09l46.52,8.95a.43.43,0,0,1,.32.28L246.76,209a.42.42,0,0,1-.08.42L215.87,245a.41.41,0,0,1-.4.14l-46.52-9a.42.42,0,0,1-.32-.28l-15.71-44.55A.43.43,0,0,1,153,191l30.81-35.6ZM230.33,165l-46-8.86-30.49,35.23,15.54,44.09,46,8.86L245.87,209Z" transform="translate(-38.68 -47.74)"/><path class="cls-16" d="M187.06,151.2a.43.43,0,0,1,.38-.07l48.49,13.78a.43.43,0,0,1,.3.31l12.51,48.64a.41.41,0,0,1-.12.41l-36,34.87a.44.44,0,0,1-.41.1l-48.49-13.79a.41.41,0,0,1-.3-.3L150.94,186.5a.42.42,0,0,1,.12-.41l36-34.86Zm48.41,14.46-48-13.65-35.62,34.52,12.38,48.18,48,13.65,35.62-34.53Z" transform="translate(-38.68 -47.74)"/><path class="cls-17" d="M149.44,180.77h0l41.39-33.61a.45.45,0,0,1,.42-.07l50.12,19.09a.41.41,0,0,1,.27.33l8.75,52.69a.46.46,0,0,1-.15.4h0l-41.39,33.6a.42.42,0,0,1-.42.07l-50.12-19.09a.4.4,0,0,1-.27-.33l-8.74-52.69A.4.4,0,0,1,149.44,180.77ZM191.18,148l-41,33.3,8.67,52.21,49.66,18.91,41-33.3-8.66-52.2Z" transform="translate(-38.68 -47.74)"/><path class="cls-18" d="M148.2,175l0,0,47-31.76a.4.4,0,0,1,.42,0L247,168a.42.42,0,0,1,.24.35L251.64,225a.44.44,0,0,1-.19.38l-47,31.77a.45.45,0,0,1-.42,0l-51.37-24.86a.41.41,0,0,1-.24-.35L148,175.36A.41.41,0,0,1,148.2,175Zm47.31-31-46.6,31.5,4.33,56.14,50.94,24.64,46.59-31.5-4.33-56.13Z" transform="translate(-38.68 -47.74)"/><path class="cls-19" d="M147.41,168.77l.06,0,52.79-29.31a.42.42,0,0,1,.42,0l52.16,31.08a.44.44,0,0,1,.21.37l-.63,60.39a.44.44,0,0,1-.21.37l-52.79,29.3a.42.42,0,0,1-.42,0l-52.16-31.08a.44.44,0,0,1-.21-.37l.63-60.39A.44.44,0,0,1,147.41,168.77Zm53.05-28.49L148.1,169.35l-.62,59.9,51.74,30.83L251.58,231l.62-59.9Z" transform="translate(-38.68 -47.74)"/><path class="cls-20" d="M147.16,162.1l.09-.06,58.69-26.16a.44.44,0,0,1,.43.05l52.41,37.75a.41.41,0,0,1,.17.38L252.67,238a.39.39,0,0,1-.24.34l-58.69,26.16a.42.42,0,0,1-.42,0L140.9,226.69a.42.42,0,0,1-.17-.39L147,162.39A.4.4,0,0,1,147.16,162.1Zm58.91-25.34-58.24,26-6.23,63.42,52,37.47,58.24-26,6.23-63.43Z" transform="translate(-38.68 -47.74)"/><path class="cls-21" d="M147.51,155l.13-.07,64.66-22.28a.41.41,0,0,1,.41.08l52.06,44.84a.41.41,0,0,1,.14.4L252.32,245.1a.43.43,0,0,1-.28.32L187.39,267.7a.42.42,0,0,1-.42-.08l-52.06-44.83a.42.42,0,0,1-.14-.4l12.59-67.13A.44.44,0,0,1,147.51,155Zm64.84-21.47-64.2,22.12-12.5,66.65,51.69,44.51,64.19-22.12L264,178.06Z" transform="translate(-38.68 -47.74)"/><path class="cls-22" d="M148.54,147.54a.35.35,0,0,1,.16-.08l70.63-17.63a.45.45,0,0,1,.41.12l51,52.31a.44.44,0,0,1,.1.41l-19.59,69.94a.43.43,0,0,1-.3.3l-70.63,17.62a.43.43,0,0,1-.41-.12l-51-52.31a.44.44,0,0,1-.1-.41l19.59-69.94A.38.38,0,0,1,148.54,147.54Zm70.76-16.83-70.15,17.51-19.46,69.47,50.69,52,70.15-17.51L270,182.68Z" transform="translate(-38.68 -47.74)"/><path class="cls-23" d="M150.33,139.72a.34.34,0,0,1,.2-.09l76.52-12.14a.42.42,0,0,1,.39.15l49.25,60.14a.42.42,0,0,1,.06.42l-27.27,72.27a.44.44,0,0,1-.33.27l-76.51,12.13a.41.41,0,0,1-.4-.15L123,212.59a.41.41,0,0,1-.07-.42l27.27-72.28A.37.37,0,0,1,150.33,139.72Zm76.61-11.36-76,12.07-27.1,71.81L172.74,272l76-12.06,27.1-71.82Z" transform="translate(-38.68 -47.74)"/><path class="cls-24" d="M153,131.59a.5.5,0,0,1,.24-.09l82.25-5.78a.41.41,0,0,1,.38.19l46.63,68.26a.45.45,0,0,1,0,.42l-35.64,74a.42.42,0,0,1-.35.23l-82.25,5.78a.43.43,0,0,1-.38-.18L117.24,206.2a.43.43,0,0,1,0-.42l35.64-74A.33.33,0,0,1,153,131.59Zm82.31-5-81.76,5.75-35.43,73.6,46.35,67.85L246.18,268l35.43-73.6Z" transform="translate(-38.68 -47.74)"/><path class="cls-25" d="M156.49,123.23a.42.42,0,0,1,.27-.09l87.75,1.49a.41.41,0,0,1,.36.21L288,201.46a.44.44,0,0,1,0,.43L243.29,277a.41.41,0,0,1-.37.2l-87.75-1.48a.42.42,0,0,1-.36-.22L111.72,198.9a.42.42,0,0,1,0-.42l44.66-75.13A.29.29,0,0,1,156.49,123.23Zm87.76,2.24L157,124,112.58,198.7l42.85,76.2,87.26,1.47,44.41-74.71Z" transform="translate(-38.68 -47.74)"/><path class="cls-26" d="M161,114.7a.44.44,0,0,1,.31-.09l92.9,9.69a.42.42,0,0,1,.34.25l38.56,85.15a.4.4,0,0,1,0,.42l-54.33,75.46a.42.42,0,0,1-.39.17l-92.9-9.69a.41.41,0,0,1-.34-.25l-38.56-85.15a.4.4,0,0,1,0-.42l54.33-75.46Zm92.88,10.42-92.41-9.64-54,75.06,38.36,84.7,92.41,9.64,54.05-75.06Z" transform="translate(-38.68 -47.74)"/><path class="cls-27" d="M166.6,106.09A.44.44,0,0,1,167,106l97.59,18.86a.42.42,0,0,1,.32.28l33,93.76a.45.45,0,0,1-.07.42l-64.63,74.91a.42.42,0,0,1-.4.13l-97.59-18.85a.43.43,0,0,1-.32-.28l-33-93.77a.43.43,0,0,1,.07-.41l64.63-74.91A.12.12,0,0,1,166.6,106.09Zm97.54,19.55L167,106.88l-64.3,74.54,32.81,93.3,97.11,18.77L297,219Z" transform="translate(-38.68 -47.74)"/><path class="cls-28" d="M173.33,97.48a.41.41,0,0,1,.38-.08l101.72,29a.43.43,0,0,1,.3.31L302,229.08a.41.41,0,0,1-.11.41l-75.48,73.37a.42.42,0,0,1-.41.11L124.25,274a.43.43,0,0,1-.3-.3L97.71,171.28a.42.42,0,0,1,.11-.41L173.3,97.5ZM275,127.15,173.72,98.28l-75.13,73,26.12,101.9L226,302.09l75.13-73Z" transform="translate(-38.68 -47.74)"/><path class="cls-29" d="M181.26,89a.43.43,0,0,1,.42-.07L286.84,129a.42.42,0,0,1,.26.33l18.31,110.88a.41.41,0,0,1-.15.4l-86.84,70.74h0a.42.42,0,0,1-.42.06L112.85,271.32a.4.4,0,0,1-.27-.33L94.27,160.11a.39.39,0,0,1,.15-.39L181.26,89Zm105.05,40.77-104.7-40L95.14,160.22l18.23,110.4,104.7,40,86.47-70.44Z" transform="translate(-38.68 -47.74)"/><path class="cls-30" d="M91.81,147.61l0,0,98.65-66.91a.47.47,0,0,1,.43,0L298.68,132.9a.43.43,0,0,1,.24.35L308,252.39a.41.41,0,0,1-.18.38l-98.65,66.91a.44.44,0,0,1-.43,0L101,267.47a.47.47,0,0,1-.24-.35L91.66,148A.44.44,0,0,1,91.81,147.61Zm99-66.09L92.52,148.15l9.07,118.66,107.32,52,98.25-66.63-9.07-118.66Z" transform="translate(-38.68 -47.74)"/><path class="cls-31" d="M90.17,134.55l.06-.05L201.05,72.76a.4.4,0,0,1,.42,0l109.4,65.31a.44.44,0,0,1,.21.37L309.66,265.5a.41.41,0,0,1-.21.36L198.63,327.61a.42.42,0,0,1-.42,0L88.81,262.29a.42.42,0,0,1-.21-.37l1.42-127A.41.41,0,0,1,90.17,134.55ZM201.25,73.61,90.86,135.12,89.45,261.69l109,65.06,110.39-61.51,1.41-126.57Z" transform="translate(-38.68 -47.74)"/><path class="cls-32" d="M89.65,120.55l.1-.06L213,65.33a.42.42,0,0,1,.42,0l109.92,79.3a.42.42,0,0,1,.17.39L310.18,279.53a.41.41,0,0,1-.25.34L186.7,335a.45.45,0,0,1-.42,0L76.36,255.68a.4.4,0,0,1-.17-.38L89.5,120.84A.43.43,0,0,1,89.65,120.55ZM213.1,66.21l-122.78,55-13.26,134,109.52,79,122.78-55,13.26-134Z" transform="translate(-38.68 -47.74)"/><path class="cls-33" d="M90.4,105.68l.13-.07,135.78-47a.43.43,0,0,1,.42.08L335.9,152.83a.43.43,0,0,1,.14.4l-26.61,141.2a.42.42,0,0,1-.28.32l-135.78,47a.43.43,0,0,1-.42-.08L63.78,247.53a.42.42,0,0,1-.14-.4l26.61-141.2A.41.41,0,0,1,90.4,105.68Zm136-46.22L91,106.33,64.52,247.05l108.8,93.86L308.64,294l26.52-140.72Z" transform="translate(-38.68 -47.74)"/><path class="cls-34" d="M92.57,90a.38.38,0,0,1,.17-.08L241.07,52.65a.44.44,0,0,1,.41.12l107,109.86a.43.43,0,0,1,.1.41L307.25,310.15a.45.45,0,0,1-.31.3L158.61,347.71a.41.41,0,0,1-.41-.12L51.2,237.74a.44.44,0,0,1-.1-.41L92.43,90.21A.46.46,0,0,1,92.57,90ZM241.05,53.53,93.19,90.68,52,237.33l106.65,109.5,147.86-37.14L347.7,163Z" transform="translate(-38.68 -47.74)"/><path class="cls-35" d="M96.34,73.58a.4.4,0,0,1,.2-.08L257.27,47.74a.44.44,0,0,1,.4.16L360.9,174.16a.41.41,0,0,1,.07.42l-57.5,152a.42.42,0,0,1-.33.27L142.41,352.62a.44.44,0,0,1-.4-.15L38.78,226.2a.41.41,0,0,1-.07-.42l57.5-152A.46.46,0,0,1,96.34,73.58Zm160.83-25L96.92,74.29,39.59,225.86,142.51,351.75l160.25-25.68,57.33-151.56Z" transform="translate(-38.68 -47.74)"/></g></g></g></svg>