<svg xmlns="http://www.w3.org/2000/svg" viewBox="0 0 1858.41 941.11"><defs><style>.cls-1{isolation:isolate;}.cls-2{opacity:0.76;mix-blend-mode:overlay;}.cls-3{fill:none;stroke:#fff;stroke-miterlimit:10;}</style></defs><title>weirdWigglyWhiteLines</title><g class="cls-1"><g id="Layer_1" data-name="Layer 1"><g class="cls-2"><path class="cls-3" d="M63.06,971.85c96.32,21.29,202,10.25,284.59-29.76S488.69,833.7,505,757.87c19.51-90.66-16.22-194.63,48.59-270,41.16-47.85,115-72.16,188.42-82.59s149.4-9.37,223.09-18.77c107-13.65,206.44-49,300.36-89.55C1384,245.82,1504,177.46,1537.77,74.09" transform="translate(-62.95 -73.93)"/><path class="cls-3" d="M83.23,973.53c96.31,21.3,202,10.25,284.58-29.76S508.86,835.38,525.17,759.56c19.5-90.66-16.23-194.64,48.58-270,41.16-47.85,115-72.16,188.43-82.6s149.4-9.36,223.08-18.76c107-13.65,206.44-49,300.37-89.56,118.55-51.14,238.57-119.5,272.3-222.88" transform="translate(-62.95 -73.93)"/><path class="cls-3" d="M103.39,975.22c96.31,21.3,202,10.25,284.59-29.76S529,837.07,545.33,761.24c19.51-90.65-16.23-194.63,48.59-270,41.16-47.85,115-72.17,188.42-82.6s149.4-9.36,223.09-18.76c107-13.66,206.44-49,300.36-89.56,118.56-51.15,238.57-119.51,272.3-222.88" transform="translate(-62.95 -73.93)"/><path class="cls-3" d="M123.55,976.91c96.32,21.29,202,10.25,284.59-29.76s141-108.39,157.36-184.22c19.5-90.66-16.23-194.63,48.58-270,41.16-47.85,115-72.16,188.43-82.59s149.4-9.37,223.08-18.77c107-13.65,206.44-49,300.36-89.55,118.56-51.15,238.57-119.51,272.31-222.88" transform="translate(-62.95 -73.93)"/><path class="cls-3" d="M143.72,978.59c96.31,21.3,202,10.25,284.59-29.76s141-108.39,157.35-184.21c19.5-90.66-16.23-194.64,48.59-270,41.16-47.85,115-72.16,188.42-82.6s149.4-9.36,223.09-18.76c107-13.65,206.44-49,300.36-89.56,118.55-51.14,238.57-119.5,272.3-222.88" transform="translate(-62.95 -73.93)"/><path class="cls-3" d="M163.88,980.28c96.32,21.3,202,10.25,284.59-29.76s141-108.39,157.36-184.22c19.5-90.65-16.23-194.63,48.58-270,41.16-47.85,115-72.17,188.42-82.6s149.41-9.36,223.09-18.76c107-13.66,206.44-49,300.36-89.56,118.56-51.15,238.57-119.51,272.31-222.88" transform="translate(-62.95 -73.93)"/><path class="cls-3" d="M184.05,982c96.31,21.29,202,10.25,284.58-29.76S609.68,843.82,626,768c19.5-90.66-16.23-194.63,48.58-270,41.16-47.86,115-72.17,188.43-82.6s149.4-9.37,223.09-18.77c107-13.65,206.43-49,300.36-89.55C1505,255.94,1625,187.58,1658.75,84.21" transform="translate(-62.95 -73.93)"/><path class="cls-3" d="M204.21,983.66c96.32,21.29,202,10.24,284.59-29.77s141-108.39,157.35-184.21c19.51-90.66-16.22-194.64,48.59-270,41.16-47.85,115-72.16,188.42-82.6s149.4-9.36,223.09-18.76c107-13.65,206.44-49,300.36-89.56,118.56-51.14,238.57-119.5,272.31-222.88" transform="translate(-62.95 -73.93)"/><path class="cls-3" d="M224.38,985.34c96.31,21.3,202,10.25,284.58-29.76S650,847.19,666.32,771.36c19.5-90.65-16.23-194.63,48.58-270,41.16-47.85,115-72.16,188.43-82.6s149.4-9.36,223.08-18.76c107-13.66,206.44-49,300.37-89.56,118.55-51.15,238.57-119.51,272.3-222.88" transform="translate(-62.95 -73.93)"/><path class="cls-3" d="M244.54,987c96.32,21.29,202,10.25,284.59-29.76s141-108.39,157.35-184.22c19.51-90.66-16.23-194.63,48.59-270,41.16-47.86,115-72.17,188.42-82.6s149.4-9.37,223.09-18.77c107-13.65,206.44-49,300.36-89.55C1565.5,261,1685.51,192.64,1719.24,89.27" transform="translate(-62.95 -73.93)"/><path class="cls-3" d="M264.7,988.72C361,1010,466.66,999,549.29,959s141-108.39,157.36-184.21c19.5-90.66-16.23-194.64,48.58-270,41.16-47.85,115-72.16,188.43-82.59s149.4-9.37,223.08-18.77c107-13.65,206.44-49,300.36-89.56,118.56-51.14,238.58-119.5,272.31-222.88" transform="translate(-62.95 -73.93)"/><path class="cls-3" d="M284.87,990.4c96.31,21.3,202,10.25,284.59-29.76s141-108.39,157.35-184.22c19.5-90.65-16.23-194.63,48.59-270,41.16-47.85,115-72.16,188.42-82.6s149.4-9.36,223.09-18.76c107-13.66,206.44-49,300.36-89.56,118.55-51.15,238.57-119.51,272.3-222.88" transform="translate(-62.95 -73.93)"/><path class="cls-3" d="M305,992.09c96.32,21.29,202,10.25,284.59-29.76S730.66,853.94,747,778.11c19.5-90.66-16.23-194.63,48.58-270,41.16-47.85,115-72.17,188.43-82.6s149.4-9.37,223.08-18.77c107-13.65,206.44-49,300.36-89.55C1626,266.06,1746,197.7,1779.74,94.33" transform="translate(-62.95 -73.93)"/><path class="cls-3" d="M325.2,993.78c96.31,21.29,202,10.24,284.58-29.77S750.83,855.62,767.14,779.8c19.5-90.66-16.23-194.64,48.59-270,41.15-47.85,115-72.16,188.42-82.59s149.4-9.37,223.09-18.77c107-13.65,206.43-49,300.36-89.56,118.55-51.14,238.57-119.5,272.3-222.88" transform="translate(-62.95 -73.93)"/><path class="cls-3" d="M345.36,995.46c96.32,21.3,202,10.25,284.59-29.76S771,857.31,787.31,781.48c19.5-90.65-16.23-194.63,48.58-270,41.16-47.85,115-72.16,188.42-82.6s149.41-9.36,223.09-18.76c107-13.66,206.44-49,300.36-89.56,118.56-51.15,238.57-119.51,272.31-222.88" transform="translate(-62.95 -73.93)"/><path class="cls-3" d="M365.53,997.15c96.31,21.29,202,10.25,284.58-29.76S791.16,859,807.47,783.17c19.5-90.66-16.23-194.63,48.58-270,41.16-47.85,115-72.17,188.43-82.6s149.4-9.37,223.08-18.77c107-13.65,206.44-49,300.37-89.55,118.55-51.15,238.57-119.51,272.3-222.88" transform="translate(-62.95 -73.93)"/><path class="cls-3" d="M385.69,998.84c96.32,21.29,202,10.24,284.59-29.76s141-108.4,157.35-184.22c19.51-90.66-16.23-194.64,48.59-270,41.16-47.85,115-72.16,188.42-82.59s149.4-9.37,223.09-18.77c107-13.65,206.44-49,300.36-89.56,118.56-51.14,238.57-119.5,272.31-222.88" transform="translate(-62.95 -73.93)"/><path class="cls-3" d="M405.86,1000.52c96.31,21.3,201.95,10.25,284.58-29.76s141-108.39,157.36-184.22c19.5-90.65-16.23-194.63,48.58-270,41.16-47.85,115-72.16,188.43-82.6s149.4-9.36,223.08-18.76c107-13.66,206.44-49,300.37-89.56,118.55-51.15,238.57-119.51,272.3-222.88" transform="translate(-62.95 -73.93)"/><path class="cls-3" d="M426,1002.21c96.31,21.29,202,10.25,284.59-29.76S851.65,864.06,868,788.23c19.51-90.66-16.23-194.63,48.59-270,41.16-47.85,115-72.17,188.42-82.6s149.4-9.36,223.09-18.77c107-13.65,206.44-49,300.36-89.55C1747,276.18,1867,207.82,1900.72,104.45" transform="translate(-62.95 -73.93)"/><path class="cls-3" d="M446.18,1003.9c96.32,21.29,202,10.24,284.59-29.76s141-108.4,157.36-184.22c19.5-90.66-16.23-194.64,48.58-270,41.16-47.85,115-72.16,188.43-82.59s149.4-9.37,223.08-18.77c107-13.65,206.44-49,300.36-89.56,118.56-51.14,238.57-119.5,272.31-222.88" transform="translate(-62.95 -73.93)"/></g></g></g></svg>