<svg id="Layer_1" data-name="Layer 1" xmlns="http://www.w3.org/2000/svg" viewBox="0 0 311.82 27.86"><defs><style>.cls-1{fill:#f9f7f7;}</style></defs><title>whiteDots</title><path class="cls-1" d="M344,197.74a2.31,2.31,0,0,1-.8,1.7,2.88,2.88,0,0,1-1.92.71,2.44,2.44,0,1,1,2.72-2.44Z" transform="translate(-44.07 -172.29)"/><path class="cls-1" d="M317.21,197.57a2.71,2.71,0,0,1-5.39,0,2.27,2.27,0,0,1,.8-1.74,2.78,2.78,0,0,1,1.91-.7,2.57,2.57,0,0,1,2.68,2.42Z" transform="translate(-44.07 -172.29)"/><path class="cls-1" d="M290.44,197.41a2.29,2.29,0,0,1-.8,1.71,2.93,2.93,0,0,1-1.92.7A2.58,2.58,0,0,1,285,197.4a2.33,2.33,0,0,1,.81-1.74,2.88,2.88,0,0,1,1.91-.7,2.58,2.58,0,0,1,2.68,2.42Z" transform="translate(-44.07 -172.29)"/><path class="cls-1" d="M263.66,197.25a2.31,2.31,0,0,1-.8,1.71,2.9,2.9,0,0,1-1.91.7,2.44,2.44,0,1,1,2.71-2.44Z" transform="translate(-44.07 -172.29)"/><path class="cls-1" d="M236.89,197.08a2.72,2.72,0,0,1-5.4,0,2.31,2.31,0,0,1,.81-1.74,2.82,2.82,0,0,1,1.91-.69,2.58,2.58,0,0,1,2.68,2.42Z" transform="translate(-44.07 -172.29)"/><path class="cls-1" d="M210.11,196.92a2.29,2.29,0,0,1-.8,1.71,2.88,2.88,0,0,1-1.91.7,2.44,2.44,0,1,1,2.71-2.43Z" transform="translate(-44.07 -172.29)"/><path class="cls-1" d="M183.34,196.76a2.32,2.32,0,0,1-.81,1.71,2.88,2.88,0,0,1-1.91.7,2.44,2.44,0,1,1,2.72-2.44Z" transform="translate(-44.07 -172.29)"/><path class="cls-1" d="M156.56,196.59a2.28,2.28,0,0,1-.8,1.71,2.78,2.78,0,0,1-1.91.7,2.57,2.57,0,0,1-2.68-2.42,2.6,2.6,0,0,1,2.72-2.44,2.58,2.58,0,0,1,2.67,2.43Z" transform="translate(-44.07 -172.29)"/><path class="cls-1" d="M129.79,196.43a2.71,2.71,0,1,1-2.68-2.45,2.59,2.59,0,0,1,2.68,2.45Z" transform="translate(-44.07 -172.29)"/><path class="cls-1" d="M103,196.27a2.71,2.71,0,1,1-2.67-2.45,2.58,2.58,0,0,1,2.67,2.45Z" transform="translate(-44.07 -172.29)"/><path class="cls-1" d="M76.24,196.1a2.29,2.29,0,0,1-.81,1.71,2.78,2.78,0,0,1-1.91.7,2.58,2.58,0,0,1-2.68-2.42,2.72,2.72,0,0,1,5.4,0Z" transform="translate(-44.07 -172.29)"/><path class="cls-1" d="M49.46,195.94a2.71,2.71,0,1,1-2.68-2.45,2.59,2.59,0,0,1,2.68,2.45Z" transform="translate(-44.07 -172.29)"/><path class="cls-1" d="M344.17,176.54a2.72,2.72,0,0,1-5.4,0,2.31,2.31,0,0,1,.8-1.74,2.82,2.82,0,0,1,1.92-.7,2.58,2.58,0,0,1,2.68,2.42Z" transform="translate(-44.07 -172.29)"/><path class="cls-1" d="M317.39,176.37a2.72,2.72,0,0,1-5.4,0,2.62,2.62,0,0,1,2.72-2.45,2.58,2.58,0,0,1,2.68,2.42Z" transform="translate(-44.07 -172.29)"/><path class="cls-1" d="M290.62,176.21a2.72,2.72,0,0,1-5.4,0,2.29,2.29,0,0,1,.8-1.74,2.87,2.87,0,0,1,1.92-.7,2.59,2.59,0,0,1,2.68,2.42Z" transform="translate(-44.07 -172.29)"/><path class="cls-1" d="M263.84,176.05a2.27,2.27,0,0,1-.8,1.7,2.81,2.81,0,0,1-1.92.7,2.58,2.58,0,0,1-2.68-2.41,2.32,2.32,0,0,1,.81-1.74,2.78,2.78,0,0,1,1.91-.7,2.58,2.58,0,0,1,2.68,2.41Z" transform="translate(-44.07 -172.29)"/><path class="cls-1" d="M237.06,175.88a2.71,2.71,0,0,1-5.39,0,2.29,2.29,0,0,1,.8-1.74,2.87,2.87,0,0,1,1.92-.69,2.56,2.56,0,0,1,2.67,2.41Z" transform="translate(-44.07 -172.29)"/><path class="cls-1" d="M210.29,175.72a2.31,2.31,0,0,1-.8,1.71,2.93,2.93,0,0,1-1.92.7,2.44,2.44,0,1,1,2.72-2.44Z" transform="translate(-44.07 -172.29)"/><path class="cls-1" d="M183.52,175.55a2.29,2.29,0,0,1-.81,1.71,2.78,2.78,0,0,1-1.91.7,2.58,2.58,0,0,1-2.68-2.41,2.27,2.27,0,0,1,.8-1.74,2.82,2.82,0,0,1,1.92-.7,2.58,2.58,0,0,1,2.68,2.41Z" transform="translate(-44.07 -172.29)"/><path class="cls-1" d="M156.74,175.39a2.29,2.29,0,0,1-.8,1.71,2.82,2.82,0,0,1-1.92.7,2.59,2.59,0,0,1-2.68-2.42,2.35,2.35,0,0,1,.81-1.74,2.88,2.88,0,0,1,1.91-.7,2.58,2.58,0,0,1,2.68,2.42Z" transform="translate(-44.07 -172.29)"/><path class="cls-1" d="M130,175.23a2.31,2.31,0,0,1-.8,1.71,2.88,2.88,0,0,1-1.91.7,2.58,2.58,0,0,1-2.68-2.42,2.27,2.27,0,0,1,.8-1.74,2.82,2.82,0,0,1,1.92-.7A2.57,2.57,0,0,1,130,175.2Z" transform="translate(-44.07 -172.29)"/><path class="cls-1" d="M103.19,175.07a2.27,2.27,0,0,1-.8,1.7,2.82,2.82,0,0,1-1.92.7,2.44,2.44,0,1,1,2.72-2.43Z" transform="translate(-44.07 -172.29)"/><path class="cls-1" d="M76.41,174.9a2.28,2.28,0,0,1-.8,1.71,2.83,2.83,0,0,1-1.91.7A2.58,2.58,0,0,1,71,174.89a2.32,2.32,0,0,1,.8-1.74,2.93,2.93,0,0,1,1.92-.7,2.57,2.57,0,0,1,2.67,2.41Z" transform="translate(-44.07 -172.29)"/><path class="cls-1" d="M49.64,174.74a2.31,2.31,0,0,1-.8,1.71,2.93,2.93,0,0,1-1.92.7,2.44,2.44,0,1,1,2.72-2.44Z" transform="translate(-44.07 -172.29)"/><path class="cls-1" d="M355.89,187.18a2.32,2.32,0,0,1-.81,1.71,2.78,2.78,0,0,1-1.91.7,2.44,2.44,0,1,1,2.72-2.43Z" transform="translate(-44.07 -172.29)"/><path class="cls-1" d="M329.11,187a2.71,2.71,0,1,1-2.68-2.45,2.58,2.58,0,0,1,2.68,2.45Z" transform="translate(-44.07 -172.29)"/><path class="cls-1" d="M302.34,186.86a2.71,2.71,0,1,1-2.68-2.45,2.6,2.6,0,0,1,2.68,2.45Z" transform="translate(-44.07 -172.29)"/><path class="cls-1" d="M275.56,186.69a2.71,2.71,0,1,1-2.68-2.45,2.58,2.58,0,0,1,2.68,2.45Z" transform="translate(-44.07 -172.29)"/><path class="cls-1" d="M248.79,186.53a2.71,2.71,0,1,1-2.68-2.45,2.59,2.59,0,0,1,2.68,2.45Z" transform="translate(-44.07 -172.29)"/><path class="cls-1" d="M222,186.37a2.72,2.72,0,0,1-5.4,0,2.32,2.32,0,0,1,.81-1.74,2.78,2.78,0,0,1,1.91-.7,2.58,2.58,0,0,1,2.68,2.42Z" transform="translate(-44.07 -172.29)"/><path class="cls-1" d="M195.23,186.2a2.71,2.71,0,0,1-5.39,0,2.6,2.6,0,0,1,2.72-2.44,2.58,2.58,0,0,1,2.67,2.43Z" transform="translate(-44.07 -172.29)"/><path class="cls-1" d="M168.46,186a2.71,2.71,0,1,1-2.68-2.45,2.58,2.58,0,0,1,2.68,2.45Z" transform="translate(-44.07 -172.29)"/><path class="cls-1" d="M141.69,185.88a2.72,2.72,0,1,1-2.68-2.45,2.61,2.61,0,0,1,2.68,2.45Z" transform="translate(-44.07 -172.29)"/><path class="cls-1" d="M114.91,185.71a2.71,2.71,0,1,1-2.68-2.44,2.58,2.58,0,0,1,2.68,2.44Z" transform="translate(-44.07 -172.29)"/><path class="cls-1" d="M88.13,185.55a2.71,2.71,0,1,1-2.67-2.45,2.59,2.59,0,0,1,2.67,2.45Z" transform="translate(-44.07 -172.29)"/><path class="cls-1" d="M61.36,185.39a2.71,2.71,0,1,1-2.68-2.45,2.59,2.59,0,0,1,2.68,2.45Z" transform="translate(-44.07 -172.29)"/></svg>